<svg width="100%" height="100%" viewBox="0 0 34 33" fill="currentColor" xmlns="http://www.w3.org/2000/svg" class="size-10 md:size-12 text-yellow"><path d="M22.6269 8.41169V15.427H17.4902V8.40735H15.2298V8.41169V17.67V19.1841C15.2298 21.8306 14.4749 23.1018 12.8133 23.1018C11.1516 23.1018 10.4184 21.8306 10.4184 19.1841V8.41169H8.15808V19.3186C8.15808 23.3968 10.0627 25.3535 12.8089 25.3535C15.5552 25.3535 17.4858 23.3925 17.4858 19.3186V17.6266H22.6226V25.0932H24.8829V8.41169H22.6226H22.6269Z" fill=""></path><path d="M17 32.9985C7.90218 32.9985 0.500732 25.5971 0.500732 16.4993C0.500732 7.40145 7.90218 0 17 0C26.0978 0 33.4992 7.40145 33.4992 16.4993C33.4992 25.5971 26.0978 32.9985 17 32.9985ZM17 2.2994C9.16902 2.2994 2.80013 8.66829 2.80013 16.4993C2.80013 24.3302 9.16902 30.6991 17 30.6991C24.8309 30.6991 31.1998 24.3302 31.1998 16.4993C31.1998 8.66829 24.8309 2.2994 17 2.2994Z" fill=""></path></svg>