<?xml version="1.0" encoding="UTF-8"?><svg id="Layer_2" xmlns="http://www.w3.org/2000/svg" xmlns:xlink="http://www.w3.org/1999/xlink" viewBox="0 0 196.78 70.21"><defs><clipPath id="clippath"><rect width="196.78" height="70.21" fill="none"/></clipPath></defs><g id="Layer_1-2"><g clip-path="url(#clippath)"><path d="M47.38,4.39h-2.51v2.19h2.51v-2.19Z" fill="#050505"/><path d="M46.12,0h-4.84v2.19h4.84V0Z" fill="#050505"/><path d="M35.65,68.01c-19.86,0-33.46-13.38-33.46-32.91S15.8,2.19,35.65,2.19h3.47V0h-3.47C14.59,0,0,14.37,0,35.1s14.59,35.1,35.65,35.1h32.05v-2.19h-32.05Z" fill="#050505"/><path d="M35.65,63.63c-17.44,0-29.07-11.41-29.07-28.52S18.21,6.58,35.65,6.58h7.03v-2.19h-7.03c-18.65,0-31.26,12.4-31.26,30.72s12.62,30.72,31.26,30.72h32.05v-2.19h-32.05v-.01Z" fill="#050505"/><path d="M35.65,59.24c-15.03,0-24.68-9.43-24.68-24.13s9.65-24.13,24.68-24.13h3.47v-2.19h-3.47c-16.24,0-26.88,10.42-26.88,26.33s10.64,26.33,26.88,26.33h32.05v-2.19h-32.05v-.02Z"/><path d="M35.65,54.85c-12.62,0-20.29-7.46-20.29-19.75s7.68-19.75,20.29-19.75v-2.19c-13.82,0-22.49,8.45-22.49,21.94s8.67,21.94,22.49,21.94h32.05v-2.19h-32.05Z"/><path d="M51.61,8.78h-10.33v2.19h10.33v-2.19Z"/><path d="M49.91,13.16h-12.19v2.19h12.19v-2.19Z"/><path d="M30.87,42.88c-1.41-.77-2.51-1.83-3.31-3.18-.8-1.35-1.2-2.88-1.2-4.57s.4-3.22,1.21-4.57c.81-1.35,1.92-2.41,3.33-3.18,1.41-.77,2.99-1.15,4.73-1.15,1.42,0,2.71.25,3.88.74,1.17.49,2.16,1.21,2.97,2.15l-2.08,1.95c-1.25-1.35-2.79-2.03-4.62-2.03-1.19,0-2.25.26-3.19.78s-1.67,1.24-2.2,2.16c-.53.92-.79,1.97-.79,3.14s.26,2.22.79,3.14c.53.92,1.26,1.64,2.2,2.16.94.52,2,.78,3.19.78,1.83,0,3.37-.68,4.62-2.05l2.08,1.98c-.81.94-1.8,1.66-2.98,2.15-1.18.49-2.48.74-3.89.74-1.75,0-3.32-.38-4.73-1.15l-.01.01Z" fill="#0a0b0e"/><path d="M47.1,43.09c-1.07-.58-1.91-1.38-2.51-2.41s-.9-2.2-.9-3.5.3-2.46.9-3.49c.6-1.02,1.44-1.82,2.51-2.4,1.07-.58,2.27-.86,3.61-.86s2.56.29,3.63.86c1.07.58,1.91,1.38,2.51,2.4.6,1.02.9,2.18.9,3.49s-.3,2.47-.9,3.5c-.6,1.03-1.44,1.83-2.51,2.41-1.07.58-2.28.87-3.63.87s-2.54-.29-3.61-.87ZM53.53,40.17c.74-.76,1.11-1.76,1.11-2.99s-.37-2.23-1.11-2.99c-.74-.76-1.68-1.14-2.82-1.14s-2.07.38-2.81,1.14c-.73.76-1.1,1.75-1.1,2.99s.37,2.23,1.1,2.99c.73.76,1.67,1.14,2.81,1.14s2.08-.38,2.82-1.14Z" fill="#0a0b0e"/><path d="M70.05,31.83c1.03.93,1.55,2.34,1.55,4.22v7.74h-2.92v-1.61c-.38.58-.92,1.02-1.62,1.32-.7.3-1.55.46-2.53.46s-1.85-.17-2.6-.51c-.74-.34-1.32-.81-1.72-1.41-.4-.6-.61-1.28-.61-2.04,0-1.19.44-2.14,1.32-2.85.88-.72,2.27-1.08,4.17-1.08h3.41v-.2c0-.92-.28-1.63-.83-2.13-.55-.5-1.37-.74-2.46-.74-.74,0-1.47.12-2.19.35-.72.23-1.32.55-1.82.96l-1.21-2.25c.69-.53,1.52-.93,2.5-1.21.97-.28,2-.42,3.09-.42,1.94,0,3.43.47,4.46,1.4h.01ZM67.23,41.17c.6-.35,1.03-.86,1.27-1.52v-1.53h-3.19c-1.78,0-2.67.59-2.67,1.75,0,.56.22,1.01.67,1.34.45.33,1.06.49,1.85.49s1.46-.18,2.06-.53h.01Z" fill="#0a0b0e"/><path d="M78.05,43.09c-1.09-.58-1.94-1.38-2.55-2.41s-.91-2.2-.91-3.5.3-2.46.91-3.49c.61-1.02,1.45-1.82,2.53-2.4,1.08-.58,2.31-.86,3.69-.86,1.3,0,2.44.26,3.42.79.98.53,1.72,1.28,2.21,2.27l-2.37,1.38c-.38-.61-.85-1.07-1.42-1.37s-1.19-.46-1.87-.46c-1.15,0-2.11.37-2.87,1.12s-1.14,1.75-1.14,3,.37,2.25,1.12,3,1.71,1.12,2.88,1.12c.68,0,1.3-.15,1.87-.46s1.04-.76,1.42-1.37l2.37,1.38c-.51.99-1.26,1.75-2.24,2.29-.98.54-2.11.8-3.4.8-1.37,0-2.6-.29-3.68-.87l.03.04Z" fill="#0a0b0e"/><path d="M101.41,31.89c1.01.97,1.51,2.41,1.51,4.33v7.56h-3.09v-7.17c0-1.15-.27-2.02-.82-2.61-.54-.59-1.32-.88-2.32-.88-1.14,0-2.04.34-2.69,1.03-.65.69-.99,1.67-.99,2.95v6.67h-3.09v-18.34h3.09v6.67c.51-.54,1.14-.96,1.89-1.25.75-.29,1.59-.43,2.51-.43,1.66,0,3,.49,4,1.46v.01Z" fill="#0a0b0e"/><path d="M121.68,36.35c.56.73.84,1.64.84,2.73,0,1.5-.58,2.66-1.73,3.47-1.15.82-2.83,1.22-5.04,1.22h-8.6v-17.3h8.11c2.04,0,3.62.4,4.72,1.2,1.1.8,1.66,1.9,1.66,3.3,0,.86-.2,1.62-.59,2.27-.39.66-.94,1.17-1.63,1.53.96.31,1.71.84,2.27,1.57l-.01.01ZM110.36,29v4.77h4.55c1.12,0,1.98-.2,2.58-.61.6-.4.9-.99.9-1.77s-.3-1.39-.9-1.79c-.6-.4-1.46-.61-2.58-.61h-4.55v.01ZM119.28,38.76c0-1.66-1.24-2.5-3.73-2.5h-5.19v4.99h5.19c2.49,0,3.73-.83,3.73-2.5v.01Z" fill="#0a0b0e"/><path d="M138.44,30.58v13.2h-2.94v-1.68c-.5.59-1.11,1.05-1.85,1.37-.74.32-1.54.48-2.4.48-1.76,0-3.15-.49-4.17-1.47-1.01-.98-1.52-2.44-1.52-4.36v-7.54h3.09v7.12c0,1.19.27,2.07.8,2.66.54.59,1.3.88,2.29.88,1.1,0,1.98-.34,2.63-1.03.65-.68.98-1.67.98-2.95v-6.67h3.09v-.01Z" fill="#0a0b0e"/><path d="M142.64,27.87c-.38-.35-.57-.79-.57-1.32s.19-.97.57-1.32.85-.53,1.41-.53,1.03.17,1.41.51c.38.34.57.76.57,1.27,0,.54-.19,1-.56,1.37-.37.37-.85.56-1.42.56s-1.03-.18-1.41-.53v-.01ZM142.49,30.58h3.09v13.2h-3.09v-13.2Z" fill="#0a0b0e"/><path d="M149.64,25.44h3.09v18.34h-3.09v-18.34Z" fill="#0a0b0e"/><path d="M169.71,25.44v18.34h-2.97v-1.71c-.51.63-1.14,1.1-1.89,1.41s-1.58.47-2.48.47c-1.27,0-2.41-.28-3.42-.84-1.01-.56-1.81-1.36-2.39-2.39-.58-1.03-.87-2.21-.87-3.55s.29-2.51.87-3.53,1.37-1.81,2.39-2.37c1.01-.56,2.16-.84,3.42-.84.87,0,1.67.15,2.4.45.73.3,1.34.74,1.85,1.33v-6.77h3.09ZM164.74,40.8c.59-.34,1.06-.82,1.41-1.45.35-.63.52-1.35.52-2.18s-.17-1.55-.52-2.18c-.35-.63-.82-1.11-1.41-1.45-.59-.34-1.26-.51-2-.51s-1.41.17-2,.51c-.59.34-1.06.82-1.41,1.45-.35.63-.52,1.35-.52,2.18s.17,1.55.52,2.18c.35.63.82,1.11,1.41,1.45.59.34,1.26.51,2,.51s1.41-.17,2-.51Z" fill="#0a0b0e"/><path d="M186.13,38.17h-10.36c.18.97.66,1.74,1.42,2.31.77.57,1.72.85,2.85.85,1.45,0,2.64-.48,3.58-1.43l1.66,1.9c-.59.71-1.34,1.24-2.25,1.61-.91.36-1.93.54-3.07.54-1.45,0-2.73-.29-3.83-.87-1.1-.58-1.96-1.38-2.56-2.41-.6-1.03-.9-2.2-.9-3.5s.29-2.44.88-3.47c.58-1.03,1.4-1.83,2.43-2.41,1.04-.58,2.21-.86,3.51-.86s2.44.28,3.45.85c1.01.57,1.8,1.37,2.37,2.4.57,1.03.85,2.22.85,3.57,0,.21-.02.52-.05.91l.02.01ZM176.99,33.78c-.68.59-1.1,1.36-1.25,2.34h7.49c-.13-.96-.54-1.73-1.21-2.32-.68-.59-1.52-.89-2.52-.89s-1.82.29-2.51.88v-.01Z" fill="#0a0b0e"/><path d="M196.78,30.43v2.94c-.26-.05-.5-.07-.72-.07-1.2,0-2.14.35-2.82,1.05-.68.7-1.01,1.71-1.01,3.03v6.4h-3.09v-13.2h2.94v1.93c.89-1.38,2.46-2.08,4.7-2.08Z" fill="#0a0b0e"/></g></g></svg>