<svg width="100%" height="100%" viewBox="0 0 272 83" fill="currentColor" xmlns="http://www.w3.org/2000/svg" class="h-auto max-w-[17rem]"><path d="M0 24.516V0.586426H4.95521V24.22C4.95521 30.0287 6.60695 32.816 10.2064 32.816C13.8058 32.816 15.5057 30.0287 15.5057 24.22V0.586426H20.4609V24.516C20.4609 33.456 16.2834 37.7574 10.2064 37.7574C4.12935 37.7574 0 33.4629 0 24.516Z" fill=""></path><path d="M40.1922 25.6214H40.3849V0.590718H44.9065V37.1767H40.9217L29.5453 11.0448H29.3526V37.1767H24.7828V0.590718H29.5453L40.1922 25.6214Z" fill=""></path><path d="M64.4522 37.1767C63.8191 35.5525 63.4818 33.5154 63.2341 28.8148C63.0414 24.4583 62.1673 22.6001 58.6643 22.6001H54.4386V37.1767H49.5797V0.590718H59.0084C65.9594 0.590718 69.2148 4.88524 69.2148 11.3339C69.2148 16.5025 66.8335 19.6408 63.8191 20.4529C66.9298 21.499 67.9002 24.1142 68.0929 28.5257C68.382 33.1713 68.6298 35.2635 69.552 37.1767H64.4522ZM58.7675 17.9546C62.7523 17.9546 64.2595 15.8624 64.2595 11.6849C64.2595 7.79642 62.7523 5.41517 58.7675 5.41517H54.4386V17.9615H58.7675V17.9546Z" fill=""></path><path d="M89.8203 37.1767H72.7592V0.590718H89.6207V5.52528H77.6181V15.9794H87.0467V20.797H77.6181V32.2353H89.8203V37.1767Z" fill=""></path><path d="M106.104 0.590718L115.092 37.1767H110.089L107.756 27.2456H98.1342L95.8011 37.1767H91.1832L100.123 0.590718H106.104ZM106.641 22.4831L103.089 7.32843H102.897L99.2973 22.4831H106.641Z" fill=""></path><path d="M125.401 0.00688371C132.008 0.00688371 135.119 5.00339 135.119 11.5622V12.8973H130.694V11.6792C130.694 7.49476 128.994 4.59734 125.394 4.59734C122.621 4.59734 121.017 6.6276 121.017 9.8829C121.017 12.4982 122.235 13.9503 124.369 14.9964L128.595 16.9097C133.068 19.0019 135.594 21.8442 135.594 27.3638C135.594 33.6955 131.85 37.756 126.213 37.756C119.599 37.756 115.911 33.2825 115.911 25.6157V24.5696H120.384V25.4436C120.384 30.5572 122.524 33.1655 126.165 33.1655C129.035 33.1655 130.783 31.3073 130.783 27.88C130.783 24.9206 129.42 23.4065 126.846 22.2434L122.813 20.5022C118.877 18.761 116.303 16.0287 116.303 10.3371C116.303 4.23946 119.799 0 125.394 0L125.401 0.00688371Z" fill=""></path><path d="M159.572 19.9301C159.572 31.3133 155.828 37.7551 148.684 37.7551C141.54 37.7551 137.748 31.3064 137.748 19.9301V17.8379C137.748 6.45466 141.54 0.0128756 148.684 0.0128756C155.828 0.0128756 159.572 6.46154 159.572 17.8379V19.9301ZM154.472 16.9088C154.472 9.30391 152.724 4.88551 148.691 4.88551C144.658 4.88551 142.862 9.29702 142.862 16.9088V20.8592C142.862 28.4641 144.61 32.8825 148.691 32.8825C152.772 32.8825 154.472 28.471 154.472 20.8592V16.9088Z" fill=""></path><path d="M178.58 25.6214H178.773V0.590718H183.295V37.1767H179.31L167.934 11.0448H167.741V37.1767H163.171V0.590718H167.934L178.58 25.6214Z" fill=""></path><path d="M200.838 0.590718L209.826 37.1767H204.822L202.489 27.2456H192.868L190.535 37.1767H185.917L194.857 0.590718H200.838ZM201.374 22.4831L197.823 7.32843H197.63L194.031 22.4831H201.374Z" fill=""></path><path d="M221.305 37.1767H212.414V0.590718H221.209C228.257 0.590718 230.734 4.54112 230.734 10.2878C230.734 14.8163 228.594 17.5486 225.29 18.2437C228.89 18.8218 231.464 21.905 231.464 27.0116C231.464 33.3984 228.257 37.1767 221.305 37.1767ZM217.169 16.0964H220.817C224.705 16.0964 225.917 13.9492 225.917 10.8108C225.917 7.67254 224.698 5.40829 220.817 5.40829H217.169V16.0964ZM217.169 20.68V32.3523H221.202C225.139 32.3523 226.694 30.322 226.694 26.5437C226.694 22.7653 225.139 20.68 221.202 20.68H217.169Z" fill=""></path><path d="M239.77 0.590718V32.2422H251.773V37.1767H234.808V0.590718H239.77Z" fill=""></path><path d="M272 37.1767H254.939V0.590718H271.801V5.52528H259.798V15.9794H269.227V20.797H259.798V32.2353H272V37.1767Z" fill=""></path><path d="M0 81.9102V45.3242H4.95521V60.7128H16.2283V45.3242H21.1835V81.9102H16.2283V65.5304H4.95521V81.9102H0Z" fill=""></path><path d="M46.6134 64.6657C46.6134 76.049 42.8695 82.4907 35.7257 82.4907C28.582 82.4907 24.7899 76.0421 24.7899 64.6657V62.5735C24.7899 51.1903 28.582 44.7485 35.7257 44.7485C42.8695 44.7485 46.6134 51.1972 46.6134 62.5735V64.6657ZM41.5068 61.6444C41.5068 54.0396 39.7587 49.6211 35.7257 49.6211C31.6927 49.6211 29.8965 54.0327 29.8965 61.6444V65.5948C29.8965 73.1997 31.6446 77.6181 35.7257 77.6181C39.8069 77.6181 41.5068 73.2066 41.5068 65.5948V61.6444Z" fill=""></path><path d="M58.1344 44.7419C64.7414 44.7419 67.8522 49.7384 67.8522 56.2972V57.6323H63.4269V56.4142C63.4269 52.2298 61.727 49.3323 58.1276 49.3323C55.354 49.3323 53.7505 51.3626 53.7505 54.6179C53.7505 57.2331 54.9686 58.6853 57.1021 59.7314L61.3278 61.6447C65.8013 63.7369 68.327 66.5792 68.327 72.0988C68.327 78.4305 64.5831 82.491 58.9465 82.491C52.3327 82.491 48.6438 78.0175 48.6438 70.3507V69.3046H53.1173V70.1786C53.1173 75.2921 55.2577 77.9005 58.8984 77.9005C61.7683 77.9005 63.5163 76.0423 63.5163 72.615C63.5163 69.6556 62.1537 68.1415 59.5797 66.9784L55.5467 65.2372C51.6101 63.496 49.0361 60.7637 49.0361 55.0721C49.0361 48.9745 52.5323 44.735 58.1276 44.735L58.1344 44.7419Z" fill=""></path><path d="M76.4548 81.9102H71.5477V45.3242H79.8615C87.0052 45.3242 90.2605 49.6187 90.2605 56.9414C90.2605 64.2641 87.0052 68.5586 79.8615 68.5586H76.4616V81.9171L76.4548 81.9102ZM79.5174 63.7342C83.3576 63.7342 85.4498 62.1099 85.4498 56.9414C85.4498 51.7728 83.3576 50.1486 79.5174 50.1486H76.4548V63.741H79.5174V63.7342Z" fill=""></path><path d="M98.182 45.3242V81.9102H93.2268V45.3242H98.182Z" fill=""></path><path d="M109.366 81.9102V50.2587H101.348V45.3242H122.442V50.2587H114.28V81.9102H109.366Z" fill=""></path><path d="M135.512 45.3242L144.5 81.9102H139.496L137.163 71.9791H127.542L125.209 81.9102H120.591L129.531 45.3242H135.512ZM136.041 67.2166L132.49 52.0619H132.298L128.698 67.2166H136.041Z" fill=""></path><path d="M152.042 45.3242V76.9756H164.045V81.9102H147.08V45.3242H152.042Z" fill=""></path><path d="M172.159 45.3242V81.9102H167.204V45.3242H172.159Z" fill=""></path><path d="M183.343 81.9102V50.2587H175.325V45.3242H196.419V50.2587H188.257V81.9102H183.343Z" fill=""></path><path d="M214.836 45.3242H219.743L210.899 68.7307V81.9102H206.185V68.7307L197.341 45.3242H202.448L208.766 62.2269L214.843 45.3242H214.836Z" fill=""></path></svg>