<?xml version="1.0" encoding="UTF-8"?>
<svg id="Layer_1" xmlns="http://www.w3.org/2000/svg" version="1.1" viewBox="0 0 500 102.2">
  <!-- Generator: Adobe Illustrator 29.8.1, SVG Export Plug-In . SVG Version: 2.1.1 Build 2)  -->
  <path d="M102.1,3.3v15.3h-3.1V3.3h-5.5V.4h14.1v2.9h-5.5Z"/>
  <path d="M118.8,18.6V.4h3v7.9h9.1V.4h3.1v18.2h-3.1v-7.4h-9.1v7.4h-3Z"/>
  <path d="M159.6.4v2.9h-9.7v4.9h8.7v2.7h-8.7v4.9h10v2.8h-13.1V.4h12.8Z"/>
  <path d="M193.3,2.9c-1.4-.1-2.8.5-3.6,1.6-.8,1.3-1.2,2.9-1.1,4.4.5-.6,1.1-1,1.8-1.3.8-.5,1.8-.7,2.7-.7,1.5,0,3,.6,4.1,1.7,1.2,1.1,1.8,2.7,1.7,4.3,0,1.6-.6,3.2-1.8,4.3-1.2,1.1-2.8,1.7-4.5,1.7-2.7.1-5.1-1.5-6-4-.7-1.6-1-3.3-1-5,0-1.6.2-3.2.6-4.7.4-1.1.9-2.1,1.7-3,1.3-1.4,3.1-2.1,5-2.1,1.9,0,3.8.7,5.3,1.9l-1.5,2.2-1.6-.9c-.6-.3-1.2-.4-1.8-.4ZM192.7,9.6c-.9,0-1.9.3-2.6.9-.7.6-1,1.4-1,2.3,0,.9.4,1.8,1,2.4.7.6,1.6,1,2.5,1,.9,0,1.9-.3,2.6-.9.6-.6,1-1.4,1-2.3,0-.9-.3-1.7-.9-2.4-.7-.7-1.6-1-2.6-1Z"/>
  <path d="M232.4,3.3v15.3h-3.1V3.3h-5.5V.4h14.1v2.9h-5.5Z"/>
  <path d="M256.2,18.6h-3.1v-7.1l-6.8-11.1h3.4l4.9,8.3,5-8.3h3.4l-6.8,11.1v7.1Z"/>
  <path d="M285.4,2c1.4,1.3,2.1,3.1,1.9,4.9.1,1.8-.6,3.6-1.9,4.9-1.3,1-3.3,1.5-6,1.5h-3.2v5.3h-3.1V.4h6.3c2.1-.1,4.2.4,6,1.6ZM283.2,9.5c.7-.8,1-1.8.9-2.8.1-1-.3-2.1-1.1-2.7-1.1-.6-2.4-.9-3.7-.8h-3.1v7.3h3.5c1.7,0,2.9-.3,3.5-1h0Z"/>
  <path d="M311.5.4v2.9h-9.7v4.9h8.7v2.7h-8.7v4.9h10v2.8h-13.1V.4h12.8Z"/>
  <path d="M329.1,2.8c-.8,0-1.6.2-2.2.6-.6.3-.9.9-.9,1.6,0,.7.3,1.3.9,1.7,1.1.6,2.3,1,3.6,1.3,1.6.3,3,.9,4.3,1.9,1,.9,1.5,2.3,1.4,3.6,0,1.5-.6,3-1.8,3.9-1.3,1-3,1.6-4.7,1.5-2.8,0-5.6-1.1-7.6-3l1.9-2.3c1.5,1.5,3.6,2.3,5.7,2.4.9,0,1.7-.2,2.4-.7.6-.3.9-.9.9-1.6,0-.7-.3-1.3-.9-1.7-.9-.5-1.8-.9-2.8-1.1l-3-.8c-.7-.3-1.3-.7-1.9-1.1-1.1-.9-1.7-2.3-1.6-3.7,0-1.5.6-3,1.8-3.9,1.3-.9,3-1.4,4.6-1.4,1.2,0,2.4.2,3.5.6,1.1.3,2,.9,2.9,1.6l-1.6,2.3c-.6-.5-1.4-.9-2.2-1.2-.9-.3-1.8-.5-2.7-.5Z"/>
  <path d="M378,16.1c-1.9,1.8-4.3,2.7-6.9,2.7-2.5,0-5-.9-6.8-2.7-1.8-1.8-2.8-4.2-2.7-6.7,0-2.5.9-4.9,2.7-6.7,1.8-1.8,4.3-2.8,6.8-2.7,2.6,0,5,.9,6.9,2.7,1.8,1.8,2.8,4.2,2.7,6.7,0,2.5-.9,4.9-2.7,6.7ZM375.7,4.7c-1.2-1.2-2.9-1.9-4.6-1.9-1.7,0-3.3.7-4.5,1.9-1.3,1.2-1.9,2.9-1.9,4.7,0,1.8.6,3.5,1.9,4.7,1.1,1.3,2.8,2,4.5,1.9,1.7,0,3.4-.6,4.6-1.9,2.5-2.6,2.5-6.8,0-9.4Z"/>
  <path d="M395.5,3.3v5h8.1v2.8h-8.1v7.5h-3.1V.4h12.1v2.9h-9Z"/>
  <path d="M367.2,70.9h-31.5c0,2.7.8,5.3,2.2,7.6,1.4,2.2,3.3,4,5.5,5.2,2.4,1.2,5.1,1.8,7.8,1.8,2.3,0,4.5-.4,6.6-1.3,2-.8,3.7-2.1,5.1-3.8l2,2.3c-1.6,1.9-3.7,3.4-6,4.4-2.5,1-5.1,1.5-7.8,1.5-3.4,0-6.7-.8-9.7-2.3-2.8-1.6-5.1-3.8-6.7-6.6-1.6-2.9-2.5-6.2-2.4-9.6,0-3.3.7-6.6,2.3-9.6,1.4-2.7,3.6-5,6.2-6.6,2.7-1.6,5.8-2.4,9-2.4,3.1,0,6.2.8,8.9,2.4,2.7,1.5,4.9,3.8,6.3,6.5,1.5,2.9,2.3,6.2,2.2,9.5v1ZM342.9,56.3c-2.1,1.2-3.8,2.9-5,4.9-1.2,2.1-1.9,4.5-2.1,7h28c0-2.5-.8-4.9-2.1-7-1.2-2-2.9-3.7-5-4.8-2.1-1.2-4.5-1.8-6.9-1.8-2.4,0-4.8.6-6.9,1.7Z"/>
  <path d="M403.3,55.5c2.7,2.7,4,6.5,4,11.5v21.4h-3.5v-21.1c0-4.1-1-7.3-3.1-9.4s-5-3.2-8.7-3.2-7.7,1.3-10.2,3.8-3.7,6-3.7,10.4v19.5h-3.5v-36.6h3.4v7.9c1.2-2.6,3.1-4.7,5.6-6,2.7-1.5,5.7-2.3,8.8-2.2,4.6,0,8.2,1.4,10.9,4Z"/>
  <path d="M417.9,42.1c-1.1-1.1-1.1-2.9,0-4,.5-.6,1.3-.9,2.1-.9.7,0,1.5.3,2,.8.5.5.8,1.2.8,2,0,.8-.3,1.5-.8,2.1-.5.5-1.3.8-2,.8-.8,0-1.5-.3-2.1-.8ZM418.2,51.8h3.5v36.6h-3.5v-36.6Z"/>
  <path d="M465,51.8v36.6h-3.4v-7.9c-1.1,2.5-3,4.6-5.4,6-2.6,1.5-5.5,2.2-8.4,2.1-4.7,0-8.5-1.3-11.2-4s-4-6.4-4-11.4v-21.4h3.5v21.1c0,4.1,1,7.2,3.1,9.4s5.1,3.2,8.9,3.2c3.7.2,7.3-1.2,9.8-3.9,2.4-2.5,3.6-6,3.6-10.3v-19.5h3.5Z"/>
  <path d="M477.2,87.3c-2.3-.7-4.5-1.8-6.3-3.4l1.7-2.8c1.7,1.4,3.6,2.5,5.7,3.2,2.4.8,4.9,1.3,7.4,1.3,3.7,0,6.4-.7,8.2-1.9,1.7-1.1,2.6-3,2.6-5,0-1.3-.4-2.7-1.4-3.6-1-.9-2.3-1.6-3.6-2-1.9-.6-3.8-1-5.8-1.3-2.4-.4-4.7-1-7-1.7-1.7-.6-3.3-1.6-4.5-3-1.4-1.5-2-3.6-1.9-5.6,0-2.8,1.3-5.5,3.6-7.1,2.4-1.9,5.8-2.9,10.2-2.9,2.4,0,4.7.4,7,1,2,.5,3.9,1.4,5.6,2.6l-1.6,2.8c-1.6-1.1-3.3-2-5.2-2.5-1.9-.5-3.8-.8-5.8-.8-3.4,0-6,.6-7.7,1.9-1.7,1.1-2.7,3-2.6,5,0,1.4.4,2.8,1.4,3.8,1,.9,2.3,1.6,3.6,2,2,.6,4,1,6,1.4,2.3.4,4.6,1,6.9,1.7,1.7.5,3.3,1.5,4.5,2.8,1.3,1.5,1.9,3.4,1.8,5.4,0,2.9-1.4,5.7-3.8,7.3-2.5,1.8-6.1,2.7-10.6,2.7-2.9,0-5.7-.4-8.4-1.3Z"/>
  <path d="M71.3,39.3l-16.6,49.1h-3.8l-15.2-44-15.3,44h-3.7L0,39.3h3.8l14.9,44.2,15.3-44.2h3.5l15.2,44.2,15.1-44.2h3.5Z"/>
  <path d="M79.1,86.3c-2.8-1.6-5.1-3.9-6.6-6.7-3.1-6-3.1-13.1,0-19.1,1.6-2.8,3.8-5,6.6-6.6,5.8-3.2,12.9-3.2,18.7,0,2.7,1.6,5,3.8,6.5,6.6,3.2,6,3.2,13.1,0,19.1-1.5,2.8-3.7,5.1-6.5,6.7-5.9,3.1-12.8,3.1-18.7,0ZM96,83.5c2.2-1.3,4-3.2,5.2-5.4,1.3-2.5,2-5.2,1.9-8,0-2.8-.6-5.5-1.9-8-1.2-2.3-3-4.2-5.2-5.5-2.3-1.3-4.9-1.9-7.6-1.9-2.6,0-5.2.6-7.5,1.9-2.2,1.3-4,3.2-5.2,5.5-1.3,2.4-2,5.2-2,8,0,2.8.7,5.5,2,8,1.2,2.3,3,4.1,5.2,5.4,2.3,1.3,4.9,2,7.5,2,2.7,0,5.3-.7,7.6-2Z"/>
  <path d="M122.7,53.7c2.6-1.5,5.7-2.3,8.7-2.2v3.5h-.9c-3.6-.2-7,1.2-9.5,3.8-2.3,2.5-3.4,6.1-3.4,10.6v19h-3.5v-36.6h3.3v8c1-2.6,2.9-4.7,5.3-6.1Z"/>
  <path d="M150.5,68.8l-9.5,8.7v10.9h-3.5v-52h3.5v36.8l23.4-21.4h4.5l-15.8,14.8,17.3,21.8h-4.3l-15.6-19.6Z"/>
  <path d="M174.3,42.1c-1.1-1-1.2-2.7-.2-3.8,0,0,.1-.1.2-.2.5-.6,1.2-.9,2-.9.7,0,1.5.3,2,.8.6.5.9,1.2.9,2,0,.8-.3,1.6-.9,2.1-1.1,1.1-2.9,1.1-4,0ZM174.6,51.8h3.5v36.6h-3.5v-36.6Z"/>
  <path d="M218,55.5c2.7,2.7,4,6.5,4,11.5v21.4h-3.5v-21.1c0-4.1-1-7.3-3.1-9.4s-5-3.2-8.7-3.2-7.7,1.3-10.1,3.8-3.8,6-3.8,10.4v19.5h-3.5v-36.6h3.4v7.9c1.2-2.5,3.2-4.6,5.6-6,2.7-1.5,5.8-2.3,8.9-2.2,4.6,0,8.2,1.4,10.8,4Z"/>
  <path d="M265.9,51.8v32.6c0,6.1-1.4,10.6-4.4,13.5s-7.3,4.3-13.3,4.3c-3.2,0-6.4-.5-9.5-1.5-2.7-.9-5.2-2.3-7.2-4.3l1.9-2.7c1.9,1.8,4.2,3.1,6.6,4,2.6.9,5.4,1.4,8.2,1.4,4.8,0,8.4-1.2,10.7-3.5s3.5-5.9,3.5-10.7v-6.2c-1.4,2.6-3.6,4.8-6.2,6.2-2.8,1.4-5.9,2.2-9,2.1-3.2,0-6.4-.7-9.2-2.3-2.7-1.4-5-3.6-6.6-6.3-1.6-2.8-2.4-6-2.4-9.2,0-3.2.8-6.3,2.4-9.1,1.6-2.7,3.9-4.9,6.6-6.3,2.8-1.5,6-2.3,9.2-2.3,3.2,0,6.3.8,9.1,2.3,2.7,1.4,4.9,3.6,6.3,6.3v-8.3h3.3ZM255.2,82c2.3-1.2,4.2-3,5.4-5.2,1.3-2.3,2-4.9,1.9-7.6,0-2.6-.6-5.2-1.9-7.5-1.3-2.2-3.2-4-5.4-5.2-2.4-1.2-5-1.8-7.7-1.8-2.6,0-5.3.6-7.6,1.8-2.2,1.2-4.1,3-5.4,5.2-2.5,4.7-2.5,10.4,0,15.1,1.2,2.2,3.1,4,5.4,5.2,2.3,1.3,4.9,2,7.6,1.9,2.7,0,5.3-.6,7.7-1.9Z"/>
  <path d="M325.2,64h-20.5v3.5h17.1v13.4c-3.7,3-8.3,4.5-13.9,4.5-4,0-7.9-.9-11.4-2.8-3.3-1.8-6-4.5-7.9-7.8-2-3.3-3-7.1-2.9-11,0-3.9.9-7.6,2.8-11,1.9-3.3,4.7-5.9,8-7.7,3.5-1.9,7.4-2.9,11.4-2.8,2.9,0,5.7.4,8.4,1.3,2.6,1,4.9,2.5,6.9,4.5l2.2-2.4c-2.1-2.2-4.8-3.9-7.7-5-3.2-1.1-6.5-1.7-9.9-1.7-4.6,0-9.1,1-13.2,3.2-3.8,2.1-7,5.2-9.2,8.9-2.2,3.9-3.4,8.2-3.3,12.7,0,4.5,1.1,8.9,3.3,12.8,2.2,3.7,5.4,6.8,9.2,8.9,4,2.1,8.5,3.2,13.1,3.2,3.3,0,6.6-.5,9.7-1.6,2.9-1,5.6-2.6,7.8-4.7v-18.3h0Z"/>
  <polyline points="499 7.2 418.9 7.2 418.9 8.8 499 8.8"/>
  <polyline points="81 7.2 .8 7.2 .8 8.8 81 8.8"/>
</svg>